<svg width="33.888" height="31.88" version="1.1" viewBox="0 0 8.9661 8.4348" xmlns="http://www.w3.org/2000/svg">
			<g transform="translate(-82.493 -143.95)">
						<g transform="matrix(.071728 0 0 .071728 82.388 143.58)">
									<path d="m119.2 53.9c1.1-4.6 1.4-9.5 0.5-14.6-2.7-17.1-17-30.3-34.3-31.5-7.2-0.5-13.9 1-19.8 4.1-2.3 1.2-4.9 1.4-7.4 0.7-4.9-1.4-10.1-2-15.5-1.5-21.4 1.9-38.4 19.6-39.2 41.1s14.3 39.6 34.4 43.6c2.7 0.5 5.1 2.2 6.6 4.6 7.9 12.3 21.8 20.4 37.7 19.8 22-0.8 40-18.5 41.2-40.4 0.4-7.1-0.9-13.8-3.6-19.8-0.8-1.9-1-4-0.6-6.1z" fill="#f8f7fb"/>
									<path d="m54.5 100.4c-1.5-2.4-3.9-4-6.6-4.6-20.1-4-35.2-22.1-34.4-43.6 0.8-21 17.1-38.5 37.8-40.9-2.8-0.3-5.7-0.4-8.7-0.1-21.3 1.8-38.3 19.5-39.1 41s14.3 39.6 34.4 43.6c2.7 0.5 5.1 2.2 6.6 4.6 7.9 12.3 21.8 20.4 37.7 19.8 1.2 0 2.3-0.1 3.5-0.3-13.1-1.5-24.4-8.9-31.2-19.5z" opacity=".1"/>
									<path d="m75.6 11.9c3.7-1.9 7.8-3.3 12.2-3.8l-2.4-0.3c-7.2-0.5-13.9 1-19.8 4.1h-0.1c0.9 0.2 1.8 0.4 2.7 0.7 2.4 0.8 5.1 0.5 7.4-0.7z" fill="#f8f7fb"/>
									<path d="m65.5 12c-4.1-0.9-8.4-1.2-12.8-0.9-0.5 0-0.9 0.1-1.4 0.1 2.3 0.3 4.6 0.7 6.8 1.4 2.5 0.8 5.1 0.5 7.4-0.6z" fill="#f8f7fb"/>
									<circle cx="82.8" cy="62.4" r="22.5" fill="#fdb915"/>
									<g opacity=".1">
												<path d="m70.3 62.4c0-10.7 7.5-19.7 17.5-21.9-1.6-0.4-3.3-0.6-5-0.6-12.4 0-22.5 10.1-22.5 22.5s10.1 22.5 22.5 22.5c1.7 0 3.4-0.2 5-0.6-10-2.2-17.5-11.2-17.5-21.9z"/>
									</g>
									<path d="m93.3 62.4c0 6.9-5.6 12.5-12.5 12.5" fill="#fdb915"/>
									<g fill="#62355c">
												<path d="m81.1 122.8c-15.6 0-29.8-7.9-38.2-21-1.2-1.8-2.9-3-5-3.4-21.9-4.5-37.2-23.9-36.4-46.3 0.9-22.8 18.7-41.5 41.5-43.5 5.5-0.5 11.1 0.1 16.4 1.6 1.8 0.5 3.9 0.3 5.6-0.5 6.5-3.4 13.7-4.9 21.1-4.4 18.3 1.3 33.8 15.4 36.7 33.5 0.8 5.2 0.6 10.5-0.6 15.6-0.4 1.5-0.2 3.1 0.4 4.5 2.9 6.6 4.2 13.6 3.8 20.9-1.3 23.2-20.4 42-43.6 42.8-0.6 0.1-1.1 0.2-1.7 0.2zm-34.2-109.3c-1.1 0-2.3 0-3.4 0.1-20.4 1.8-36.2 18.4-37 38.7-0.7 19.9 12.9 37.2 32.4 41.1 3.4 0.7 6.4 2.7 8.2 5.7 7.5 11.7 20.2 18.7 34 18.7h1.5c20.6-0.7 37.7-17.5 38.8-38.1 0.4-6.5-0.8-12.7-3.4-18.6-1.1-2.4-1.3-5.2-0.7-7.7 1.1-4.5 1.2-9.1 0.5-13.6-2.6-15.9-16.1-28.3-32.1-29.4-6.5-0.4-12.8 0.9-18.5 3.8-2.8 1.5-6.2 1.8-9.3 0.9-3.5-1.1-7.3-1.6-11-1.6z"/>
												<path d="m83.3 87.4c-13.8 0-25-11.2-25-25s11.2-25 25-25 25 11.2 25 25-11.2 25-25 25zm0-45c-11 0-20 9-20 20s9 20 20 20 20-9 20-20-9-20-20-20z"/>
												<path d="m83.3 77.4c-1.4 0-2.5-1.1-2.5-2.5s1.1-2.5 2.5-2.5c5.5 0 10-4.5 10-10 0-1.4 1.1-2.5 2.5-2.5s2.5 1.1 2.5 2.5c0 8.3-6.7 15-15 15z"/>
									</g>
						</g>
			</g>
</svg>
