<svg width="26" height="26" version="1.1" viewBox="0 0 26 26" xmlns="http://www.w3.org/2000/svg">
 <g transform="translate(-3,-3)">
  <path d="m16 29a13 13 0 1 1 13-13 13 13 0 0 1-13 13zm0-24a11 11 0 1 0 11 11 11 11 0 0 0-11-11z"/>
  <path d="m11.76 21.24a1 1 0 0 1-0.71-0.29 1 1 0 0 1 0-1.41l8.49-8.49a1.0149 1.0149 0 0 1 1.46 1.41l-8.54 8.54a1 1 0 0 1-0.7 0.24z"/>
  <path d="m20.24 21.24a1 1 0 0 1-0.7-0.29l-8.49-8.49a1 1 0 0 1 1.41-1.41l8.54 8.49a1 1 0 0 1 0 1.46 1 1 0 0 1-0.76 0.24z"/>
 </g>
</svg>
