<svg width="6.8792mm" height="6.8792mm" version="1.1" viewBox="0 0 6.8792 6.8792" xmlns="http://www.w3.org/2000/svg">
	<g transform="translate(-95.59 -69.888)">
		<g transform="matrix(.26458 0 0 .26458 95.59 69.888)" fill="none">
			<path d="m13 25c6.6274 0 12-5.3726 12-12 0-6.6274-5.3726-12-12-12-6.6274 0-12 5.3726-12 12 0 6.6274 5.3726 12 12 12z" stroke="lightgreen" stroke-miterlimit="10" stroke-width="2"/>
			<path d="m13 9c0.718 0 1.3-0.58202 1.3-1.3s-0.582-1.3-1.3-1.3-1.3 0.58205-1.3 1.3 0.582 1.3 1.3 1.3z" fill="lightgreen"/>
			<path d="m13 19.7c-0.8 0-1.4-0.6-1.4-1.3v-6.8c0-0.7 0.6-1.3 1.3-1.3h0.1c0.7 0 1.3 0.6 1.3 1.3v6.8c0 0.7-0.5 1.3-1.3 1.3z" fill="lightgreen"/>
		</g>
	</g>
</svg>
