<svg width="223.99" height="199.99" version="1.1" viewBox="0 0 223.99 199.99" xmlns="https://www.w3.org/2000/svg">
	<path d="m103.98 120v-48a8 8 0 0 1 16 0v48a8 8 0 0 1-16 0zm116.77 67.981a23.754 23.754 0 0 1-20.791 12.011h-175.95a24 24 0 0 1-20.771-36.022l87.977-151.99a24 24 0 0 1 41.543 0l87.977 151.99a23.754 23.754 0 0 1 0.0195 24.012zm-13.867-15.997-87.977-151.99a8.0002 8.0002 0 0 0-13.848 0l-87.977 151.99a8.0008 8.0008 0 0 0 6.9238 12.008h175.95a8.0008 8.0008 0 0 0 6.9238-12.008zm-94.9-27.984a12 12 0 1 0 12 12 12.013 12.013 0 0 0-12-12z" />
</svg>
