<svg width="38.666mm" height="31.113mm" version="1.1" viewBox="0 0 38.667 31.113" xmlns="http://www.w3.org/2000/svg">
 <g transform="translate(-31.255 -40.329)">
  <g transform="matrix(.26458 0 0 .26458 30.866 38.952)">
   <path d="m142.86 54.026c1.3426-4.7981 1.7087-9.909 0.61026-15.229-3.2954-17.836-26.792-30.241-47.549-33.456-19.81 6.61-31.821 6.6589-44.621 5.8589-12.19 0.91036-48.675 18.627-49.652 41.053-0.9764 22.426 17.453 41.305 41.985 45.477 3.2954 0.52153 6.2246 2.2947 8.0553 4.7981 9.642 12.83 26.696 18.387 46.102 17.761 26.851-0.83443 40.243-20.394 49.682-42.786-0.13681-7.1378-0.5851-10.856-3.8804-17.115-0.97639-1.9818-1.2205-4.1722-0.7323-6.3626z" fill="#fff" stroke-width="1.1283"/>
   <g fill="#f8f7fb">
    <path d="m65.6 11.9c-42.66-4.5883-21.33-2.2942 0 0z"/>
    <path d="m65.5 12c-4.1-0.9-8.4-1.2-12.8-0.9-0.5 0-0.9 0.1-1.4 0.1 2.3 0.3 4.6 0.7 6.8 1.4 2.5 0.8 5.1 0.5 7.4-0.6z"/>
   </g>
   <path d="m94.801 122.8c-18.284 0-34.927-7.9-44.773-21-1.4065-1.8-3.399-3-5.8603-3.4-25.668-4.5-43.601-23.9-42.663-46.3 1.0549-22.8 21.918-41.5 48.64-43.5 6.4463-0.5 13.01 0.1 19.222 1.6 2.1097 0.5 4.571 0.3 6.5635-0.5 7.6184-3.4 16.057-4.9 24.73-4.4 21.449 1.3 40.241 15.337 43.64 33.437 0.93765 5.2 0.70323 10.5-0.70324 15.6-0.46882 1.5-0.23441 3.1 0.46883 4.5 3.399 6.6 3.8619 14.837 3.3931 22.137-5.2016 31.909-31.055 40.451-52.659 41.825zm-40.084-109.3c-1.2893 0-2.6957 0-3.985 0.1-23.91 1.8-42.429 18.4-43.366 38.7-0.82044 19.9 15.12 37.2 37.975 41.1 3.985 0.7 7.5012 2.7 9.6109 5.7 12.871 12.505 26.766 18.7 41.608 18.7 24.144-0.7 44.812-17.562 46.101-38.163 0.46883-6.5-0.93764-12.7-3.985-18.6-1.2893-2.4-1.5237-5.2-0.82044-7.7 1.2893-4.5 1.4065-9.1 0.58603-13.6-3.0474-15.9-19.495-28.237-38.248-29.337-7.6184-0.4-15.002 0.9-21.683 3.8-3.2818 1.5-7.2668 1.8-10.9 0.9-4.1022-1.1-8.556-1.6-12.893-1.6z" fill="#62355c" stroke-width="1.0826"/>
   <path d="m114.67 96.883c1.7968 1.4849 1.7968 3.8184 0 5.3033s-4.6202 1.4849-6.417 0c-7.0587-5.8336-18.609-5.8336-25.668 0-1.7968 1.4849-4.6202 1.4849-6.417 0s-1.7968-3.8184 0-5.3033c10.652-8.8035 27.85-8.8035 38.502 0z" fill="#62355c" stroke-width="1.65"/>
   <g transform="translate(-3.0305,-1.0102)">
    <circle cx="43.657" cy="50.026" r="22.5" fill="#fdb915"/>
    <path d="m44.157 75.026c-13.8 0-25-11.2-25-25s11.2-25 25-25 25 11.2 25 25-11.2 25-25 25zm0-45c-11 0-20 9-20 20s9 20 20 20 20-9 20-20-9-20-20-20z" fill="#62355c"/>
   </g>
   <ellipse transform="matrix(.71256 -.70161 -.12956 .99157 0 0)" cx="61.389" cy="83.974" rx="6.0464" ry="5.7549" fill="#fff" fill-opacity=".73333" stroke="#000" stroke-opacity=".249" stroke-width="1.1667"/>
   <circle cx="47.909" cy="60.328" r="2.4242" fill="#fff" fill-opacity=".73333" stroke="#000" stroke-opacity=".249"/>
   <g transform="translate(62.13 .27326)">
    <g transform="translate(-3.0305,-1.0102)">
     <circle cx="43.657" cy="50.026" r="22.5" fill="#fdb915"/>
     <path d="m44.157 75.026c-13.8 0-25-11.2-25-25s11.2-25 25-25 25 11.2 25 25-11.2 25-25 25zm0-45c-11 0-20 9-20 20s9 20 20 20 20-9 20-20-9-20-20-20z" fill="#62355c"/>
    </g>
    <ellipse transform="matrix(.71256 -.70161 -.12956 .99157 0 0)" cx="61.389" cy="83.974" rx="6.0464" ry="5.7549" fill="#fff" fill-opacity=".73333" stroke="#000" stroke-opacity=".249" stroke-width="1.1667"/>
    <circle cx="47.909" cy="60.328" r="2.4242" fill="#fff" fill-opacity=".73333" stroke="#000" stroke-opacity=".249"/>
   </g>
  </g>
 </g>
</svg>
