<svg width="17px" height="17px" version="1.1" xmlns="http://www.w3.org/2000/svg">
	<path d="m2.5 1a1.5 1.5 0 0 0-1.5 1.5v12a1.5 1.5 0 0 0 1.5 1.5h12a1.5 1.5 0 0 0 1.5-1.5v-12a1.5 1.5 0 0 0-1.5-1.5zm0-1h12a2.5 2.5 0 0 1 2.5 2.5v12a2.5 2.5 0 0 1-2.5 2.5h-12a2.5 2.5 0 0 1-2.5-2.5v-12a2.5 2.5 0 0 1 2.5-2.5zm5.328 8.536-3.182-3.182a0.50063 0.50063 0 1 1 0.708-0.708l3.182 3.182 3.182-3.182a0.50028 0.50028 0 0 1 0.707 0.708l-3.182 3.182 3.182 3.182a0.5 0.5 0 0 1-0.707 0.707l-3.182-3.182-3.182 3.182a0.50028 0.50028 0 0 1-0.708-0.707z"/>
</svg>
