<svg width="4.4979mm" height="4.4979mm" version="1.1" viewBox="0 0 4.4979 4.4979" xmlns="http://www.w3.org/2000/svg">
			<g transform="translate(-80.906 -114.92)">
						<path d="m81.567 115.19a0.39688 0.39688 0 0 0-0.39688 0.39688v3.175a0.39688 0.39688 0 0 0 0.39688 0.39687h3.175a0.39688 0.39688 0 0 0 0.39688-0.39687v-3.175a0.39688 0.39688 0 0 0-0.39688-0.39688zm0-0.26458h3.175a0.66146 0.66146 0 0 1 0.66146 0.66146v3.175a0.66146 0.66146 0 0 1-0.66146 0.66146h-3.175a0.66146 0.66146 0 0 1-0.66146-0.66146v-3.175a0.66146 0.66146 0 0 1 0.66146-0.66146zm1.4097 2.2585-0.8419-0.8419a0.13246 0.13246 0 1 1 0.18732-0.18733l0.8419 0.84191 0.8419-0.84191a0.13237 0.13237 0 0 1 0.18706 0.18733l-0.8419 0.8419 0.8419 0.84191a0.13229 0.13229 0 0 1-0.18706 0.18706l-0.8419-0.84191-0.8419 0.84191a0.13237 0.13237 0 0 1-0.18732-0.18706z" style="stroke-width:.26458"/>
			</g>
</svg>
