<svg width="106.58mm" height="106.58mm" version="1.1" viewBox="0 0 106.58 106.58" xmlns="http://www.w3.org/2000/svg">
	<g transform="translate(-33.647 -56.326)">
		<g transform="matrix(.26458 0 0 .26458 18.647 43.838)" data-name="1">
			<path d="m403.67 187.94a68 68 0 0 1-9.16-0.63c-17.89-2.4-35.5-11.48-49.57-25.55-14.07-14.08-23.15-31.68-25.56-49.58-2.57-19.12 2.93-37.07 15.11-49.25s30.13-17.69 49.25-15.11c17.9 2.41 35.51 11.48 49.58 25.56s23.15 31.68 25.56 49.57c2.57 19.13-2.94 37.08-15.11 49.26-10.21 10.2-24.48 15.73-40.1 15.73zm-37.52-47.4c9.31 9.32 21.11 15.53 32.37 17 9.91 1.34 18.45-1 24-6.59s7.93-14.12 6.59-24c-1.51-11.26-7.72-23.06-17-32.37-18.11-18.11-43.95-22.89-56.41-10.44s-7.67 38.29 10.45 56.4z"/>
			<path d="m189.36 402.24a68 68 0 0 1-9.15-0.62c-17.9-2.41-35.51-11.48-49.58-25.56s-23.15-31.68-25.56-49.57c-2.57-19.13 2.94-37.08 15.11-49.26a15.005 15.005 0 0 1 21.22 21.22c-5.59 5.58-7.93 14.12-6.6 24 1.52 11.26 7.73 23.06 17 32.37 18.2 18.18 43.99 22.93 56.45 10.48a15 15 0 1 1 21.21 21.21c-10.21 10.21-24.46 15.73-40.1 15.73z"/>
			<path d="m71.69 450a15 15 0 0 1-14.64-18.25c0.26-1.17 6.46-29 15.07-59.7 16.16-57.6 25.91-72.67 32.6-79.36l229.77-229.76a15 15 0 1 1 21.21 21.21l-229.76 229.77c-0.91 0.9-9.27 10.43-24.94 66.25-3.51 12.51-6.65 24.69-9.1 34.64 10-2.47 22.21-5.61 34.75-9.14 55.72-15.64 65.24-24 66.14-24.9l229.76-229.76a15.001 15.001 0 0 1 21.22 21.21l-229.77 229.79c-6.69 6.69-21.75 16.44-79.36 32.61-30.65 8.6-58.53 14.8-59.7 15.06a15 15 0 0 1-3.25 0.33z"/>
			<path d="m391.63 135.07a15 15 0 0 1-10.61-4.4l-5-5a15 15 0 0 1 21.21-21.21l5 5a15 15 0 0 1-10.6 25.61z"/>
		</g>
	</g>
</svg>
