<svg width="96.818mm" height="104.01mm" version="1.1" viewBox="0 0 96.818 104.01" xmlns="https://www.w3.org/2000/svg">
	<g transform="translate(-25.674 -65.923)">
		<g transform="matrix(.26458 0 0 .26458 11.768 50.172)">
			<path d="m222 327.8a11.34 11.34 0 0 0 16 16l80.86-80.8a11.35 11.35 0 0 0 0-16l-80.81-80.82a11.34 11.34 0 0 0-16 16l61.47 61.46h-219.62a11.34 11.34 0 0 0 0 22.68h219.57z"/>
			<path d="m372.84 59.53h-188.58a45.7 45.7 0 0 0-45.64 45.65v46.12a11.34 11.34 0 0 0 22.67 0v-46.12a23 23 0 0 1 23-23h188.55a23 23 0 0 1 23 23v301.82a23 23 0 0 1-23 23h-188.58a23 23 0 0 1-23-23v-45a11.34 11.34 0 1 0-22.67 0v45a45.7 45.7 0 0 0 45.64 45.65h188.61a45.7 45.7 0 0 0 45.65-45.65v-301.82a45.7 45.7 0 0 0-45.65-45.65z"/>
		</g>
	</g>
</svg>
