<svg width="14" height="13.97" version="1.1" viewBox="0 0 14 13.97" xmlns="https://www.w3.org/2000/svg">
	<path d="m14 7.76v-1.6l-1.94-0.64-0.45-1.09 0.88-1.84-1.13-1.13-1.81 0.91-1.09-0.45-0.69-1.92h-1.6l-0.63 1.94-1.11 0.45-1.84-0.88-1.13 1.13 0.91 1.81-0.45 1.09-1.92 0.68v1.59l1.94 0.64 0.45 1.09-0.88 1.84 1.13 1.13 1.81-0.91 1.09 0.45 0.69 1.92h1.59l0.63-1.94 1.11-0.45 1.84 0.88 1.13-1.13-0.92-1.81 0.47-1.09 1.92-0.69zm-7 2.23c-1.66 0-3-1.34-3-3s1.34-3 3-3 3 1.34 3 3-1.34 3-3 3z" fill-rule="evenodd"/>
</svg>
