<svg width="5.2917mm" height="4.2333mm" version="1.1" viewBox="0 0 5.2917 4.2333" xmlns="http://www.w3.org/2000/svg">
	<g transform="translate(-130.4 .60476)">
		<g transform="matrix(.26458 0 0 .26458 129.87 -1.6631)">
			<path d="m21 4c0.5128 0 0.9355 0.38604 0.9933 0.88338l0.0067 0.11662v6.5c0 1.8686-1.4643 3.3951-3.308 3.4948l-0.192 0.0052h-13.085l3.2921 3.2929c0.36048 0.3605 0.38821 0.9277 0.08319 1.32l-0.08319 0.0942c-0.36049 0.3605-0.92772 0.3882-1.32 0.0832l-0.09421-0.0832-5-5c-0.03539-0.0354-0.06758-0.0728-0.09656-0.1118l-0.07166-0.1112-0.05344-0.1128-0.03538-0.1053-0.02483-0.1175-0.00704-0.0587-0.00398-0.0898 0.00279-0.0752 0.01745-0.1255 0.0295-0.1114 0.04393-0.1111 0.05233-0.0975 0.0637-0.0922 0.08319-0.0942 5-5c0.39053-0.39052 1.0237-0.39052 1.4142 0 0.36048 0.36049 0.38821 0.92772 0.08319 1.32l-0.08319 0.09421-3.2921 3.2929h13.085c0.7797 0 1.4204-0.5949 1.4931-1.3555l0.0069-0.1445v-6.5c0-0.55228 0.4477-1 1-1z"/>
		</g>
	</g>
</svg>
