<svg width="32" height="32" viewBox="0 0 32 32" xmlns="https://www.w3.org/2000/svg">
	<path d="M0.195286 29.9193L9.49106 20.6236C7.6626 18.375 6.66509 15.5649 6.66662 12.6667C6.66662 5.68233 12.3489 0 19.3333 0C26.3177 0 32 5.68233 32 12.6667C32 19.6511 26.3177 25.3334 19.3333 25.3334C16.4351 25.3349 13.625 24.3374 11.3764 22.509L2.08067 31.8048C1.95562 31.9298 1.78604 32 1.60923 32C1.43241 32 1.26284 31.9298 1.13779 31.8048L0.195225 30.8621C0.0702126 30.7371 -1.15165e-05 30.5675 1.41662e-09 30.3907C1.15193e-05 30.2139 0.0702576 30.0443 0.195286 29.9193ZM19.3333 22.6667C24.8476 22.6667 29.3333 18.181 29.3333 12.6667C29.3333 7.15239 24.8476 2.66669 19.3333 2.66669C13.8189 2.66669 9.33325 7.15239 9.33325 12.6667C9.33325 18.181 13.8187 22.6667 19.3333 22.6667Z"/>
</svg>
