<svg width="128px" height="128px" enable-background="new 0 0 40 40" version="1.1" viewBox="0 0 40 40" xmlns="https://www.w3.org/2000/svg">
	<path d="M28,40H11.8c-3.3,0-5.9-2.7-5.9-5.9V16c0-0.6,0.4-1,1-1s1,0.4,1,1v18.1c0,2.2,1.8,3.9,3.9,3.9H28c2.2,0,3.9-1.8,3.9-3.9V16   c0-0.6,0.4-1,1-1s1,0.4,1,1v18.1C33.9,37.3,31.2,40,28,40z"/>
	<path d="m33.3 4.9h-7.6c-0.5-2.8-2.9-4.9-5.8-4.9s-5.3 2.1-5.8 4.9h-7.6c-2.3 0-4.1 1.8-4.1 4.1s1.8 4 4.1 4h26.9c2.3 0 4.1-1.8 4.1-4.1s-1.9-4-4.2-4zm-13.4-2.9c1.8 0 3.3 1.2 3.7 2.9h-7.5c0.5-1.7 2-2.9 3.8-2.9zm13.4 9h-26.8c-1.1 0-2.1-0.9-2.1-2.1 0-1.1 0.9-2.1 2.1-2.1h26.9c1.1 0 2.1 0.9 2.1 2.1-0.1 1.2-1 2.1-2.2 2.1z"/>
	<path d="m12.9 35.1c-0.6 0-1-0.4-1-1v-16.7c0-0.6 0.4-1 1-1s1 0.4 1 1v16.7c0 0.5-0.5 1-1 1z"/>
	<path d="m26.9 35.1c-0.6 0-1-0.4-1-1v-16.7c0-0.6 0.4-1 1-1s1 0.4 1 1v16.7c0 0.5-0.5 1-1 1z"/>
	<path d="m19.9 35.1c-0.6 0-1-0.4-1-1v-16.7c0-0.6 0.4-1 1-1s1 0.4 1 1v16.7c0 0.5-0.5 1-1 1z"/>
</svg>
