<?xml version="1.0" standalone="no"?>
<!DOCTYPE svg PUBLIC "-//W3C//DTD SVG 20010904//EN"
 "http://www.w3.org/TR/2001/REC-SVG-20010904/DTD/svg10.dtd">
<svg version="1.0" xmlns="http://www.w3.org/2000/svg"
 width="544.000000pt" height="544.000000pt" viewBox="0 0 544.000000 544.000000"
 preserveAspectRatio="xMidYMid meet">
<metadata>
Created by potrace 1.14, written by Peter Selinger 2001-2017
</metadata>
<g transform="translate(0.000000,544.000000) scale(0.100000,-0.100000)"
fill="#000000" stroke="none">
<path d="M3418 5275 c-2 -2 -29 -6 -61 -9 -32 -4 -64 -9 -70 -11 -7 -2 -30 -7
-51 -10 -115 -16 -259 -64 -427 -141 -129 -59 -196 -66 -324 -34 -50 13 -97
24 -105 25 -8 1 -31 5 -50 9 -83 15 -99 17 -165 23 -93 9 -293 9 -380 0 -120
-12 -149 -18 -339 -62 -36 -8 -121 -37 -153 -51 -17 -8 -34 -14 -37 -14 -14 0
-173 -76 -246 -117 -58 -33 -216 -138 -257 -172 -86 -70 -241 -224 -307 -305
-76 -93 -186 -256 -186 -274 0 -6 -3 -12 -7 -14 -27 -11 -158 -330 -189 -457
-2 -9 -8 -34 -13 -56 -33 -135 -45 -251 -46 -435 0 -184 10 -294 39 -420 3
-14 8 -38 12 -55 6 -32 52 -179 79 -255 39 -108 167 -347 222 -415 5 -5 19
-26 33 -45 13 -19 27 -37 30 -40 3 -3 21 -25 41 -50 81 -100 219 -230 339
-318 47 -34 90 -67 97 -72 7 -6 15 -10 19 -10 3 0 18 -8 32 -19 26 -18 193
-104 262 -135 46 -20 163 -61 220 -77 25 -7 50 -14 55 -15 6 -2 39 -10 75 -18
36 -7 83 -22 105 -32 42 -20 120 -91 151 -140 99 -156 259 -333 411 -456 71
-58 226 -164 278 -190 185 -95 289 -138 400 -167 42 -11 80 -23 84 -26 9 -5
23 -8 106 -20 22 -3 47 -9 55 -11 69 -25 506 -24 600 1 8 2 31 6 50 9 164 26
348 85 513 166 101 49 177 90 187 100 3 3 34 24 70 48 36 23 75 50 85 59 11
10 38 31 60 48 39 29 221 207 260 255 11 14 34 43 50 65 16 22 32 42 35 45 37
36 241 400 225 400 -4 0 -3 6 3 13 23 28 97 267 117 377 25 137 32 232 29 400
-1 102 -5 196 -7 210 -3 14 -8 46 -11 70 -3 25 -9 56 -12 70 -3 14 -7 34 -9
45 -1 11 -9 40 -16 65 -7 25 -13 50 -14 55 -6 29 -69 203 -79 220 -17 27 -37
102 -38 145 -2 35 10 128 17 139 3 6 12 55 20 111 4 25 18 237 18 255 -3 71
-15 227 -19 246 -3 13 -7 34 -10 47 -2 12 -6 33 -9 47 -3 14 -7 37 -10 53 -26
129 -155 421 -241 543 -96 137 -119 165 -239 284 -171 171 -374 301 -609 392
-50 19 -97 36 -106 38 -8 2 -52 13 -97 24 -46 12 -97 24 -115 26 -18 3 -49 7
-68 10 -37 6 -357 14 -362 10z"/>
</g>
</svg>
